<svg width="888" height="664" viewBox="0 0 888 664" fill="none" xmlns="http://www.w3.org/2000/svg">
<g id="undraw_shopping_app_flsj (1) 1">
<path id="Vector" d="M211.892 178.744C223.029 178.744 232.058 170.301 232.058 159.886C232.058 149.471 223.029 141.028 211.892 141.028C200.755 141.028 191.726 149.471 191.726 159.886C191.726 170.301 200.755 178.744 211.892 178.744Z" fill="white"/>
<path id="Vector_2" d="M259.281 185.344C270.419 185.344 279.447 176.901 279.447 166.486C279.447 156.071 270.419 147.628 259.281 147.628C248.144 147.628 239.116 156.071 239.116 166.486C239.116 176.901 248.144 185.344 259.281 185.344Z" fill="white"/>
<path id="Vector_3" d="M259.281 180.63C270.419 180.63 279.447 172.187 279.447 161.772C279.447 151.356 270.419 142.913 259.281 142.913C248.144 142.913 239.116 151.356 239.116 161.772C239.116 172.187 248.144 180.63 259.281 180.63Z" fill="white"/>
<path id="Vector_4" d="M796.855 604.665L728.53 559.472C751.573 538.48 772.532 508.589 792.576 474.793L860.9 519.985C833.599 548.981 810.471 577.437 796.855 604.665Z" fill="#00BFA6"/>
<path id="Vector_5" d="M796.873 556.549C808.011 556.549 817.039 548.106 817.039 537.691C817.039 527.276 808.011 518.833 796.873 518.833C785.736 518.833 776.708 527.276 776.708 537.691C776.708 548.106 785.736 556.549 796.873 556.549Z" fill="white"/>
<path id="Vector_6" d="M471.285 431.444H456.161V440.873H471.285V431.444Z" fill="white"/>
<path id="Vector_7" d="M704.602 496.319H690.563C690.069 496.319 689.596 496.503 689.247 496.829C688.898 497.156 688.702 497.598 688.702 498.06V503.823C688.702 504.284 688.898 504.727 689.247 505.054C689.596 505.38 690.069 505.563 690.563 505.563H692.89V514.198H702.276V505.563H704.602C705.096 505.563 705.569 505.38 705.919 505.054C706.268 504.727 706.464 504.284 706.464 503.823V498.06C706.464 497.598 706.268 497.156 705.919 496.829C705.569 496.503 705.096 496.319 704.602 496.319V496.319Z" fill="#E6E6E6"/>
<path id="Vector_8" d="M718.664 549.06C710.066 537.294 705.671 523.286 706.107 509.041C706.115 508.712 706.001 508.391 705.785 508.132C705.568 507.873 705.262 507.692 704.919 507.62V505.13H690.092V507.586H689.888C689.688 507.586 689.49 507.623 689.305 507.695C689.121 507.766 688.953 507.871 688.812 508.004C688.671 508.136 688.559 508.293 688.483 508.466C688.407 508.638 688.368 508.823 688.368 509.01C688.368 509.045 688.37 509.079 688.372 509.114C689.54 524.341 685.596 537.997 676.539 550.081C676.018 550.775 675.751 551.609 675.78 552.457L677.401 599.357C677.44 600.403 677.91 601.394 678.712 602.125C679.514 602.855 680.586 603.267 681.706 603.275H715.243C716.375 603.267 717.459 602.845 718.263 602.1C719.068 601.355 719.529 600.346 719.55 599.288L720.175 553.752C720.193 552.081 719.666 550.444 718.664 549.06V549.06Z" fill="#00BFA6"/>
<path id="Vector_9" opacity="0.2" d="M701.676 498.197C701.676 499.193 701.253 500.148 700.5 500.853C699.746 501.557 698.725 501.953 697.66 501.953C696.595 501.953 695.574 501.557 694.82 500.853C694.067 500.148 693.644 499.193 693.644 498.197" fill="black"/>
<path id="Vector_10" d="M713.355 564.638H684.164C683.732 564.638 683.305 564.726 682.912 564.894C682.519 565.063 682.17 565.309 681.889 565.616C681.608 565.923 681.401 566.283 681.282 566.671C681.163 567.06 681.136 567.468 681.201 567.867L685.613 594.681H710.943L716.301 567.958C716.382 567.553 716.367 567.136 716.256 566.738C716.146 566.339 715.943 565.968 715.661 565.651C715.38 565.334 715.028 565.079 714.629 564.904C714.231 564.729 713.796 564.638 713.355 564.638V564.638Z" fill="white"/>
<path id="Vector_11" d="M664.546 604.591H580.858C586.709 575.008 585.363 539.287 580.858 500.87H664.546C660.161 539.287 658.851 575.008 664.546 604.591Z" fill="#00BFA6"/>
<path id="Vector_12" d="M623.206 568.76C634.344 568.76 643.372 560.317 643.372 549.902C643.372 539.487 634.344 531.044 623.206 531.044C612.069 531.044 603.041 539.487 603.041 549.902C603.041 560.317 612.069 568.76 623.206 568.76Z" fill="white"/>
<path id="Vector_13" d="M837.751 611.441H571.879L515.578 362.547H467.529V351.379H525.258L581.559 600.272H837.751V611.441Z" fill="#3F3D56"/>
<path id="Vector_14" d="M610.841 656.911C624.975 656.911 636.432 646.197 636.432 632.979C636.432 619.762 624.975 609.047 610.841 609.047C596.707 609.047 585.25 619.762 585.25 632.979C585.25 646.197 596.707 656.911 610.841 656.911Z" fill="#3F3D56"/>
<path id="Vector_15" d="M801.923 656.911C816.057 656.911 827.515 646.197 827.515 632.979C827.515 619.762 816.057 609.047 801.923 609.047C787.79 609.047 776.332 619.762 776.332 632.979C776.332 646.197 787.79 656.911 801.923 656.911Z" fill="#3F3D56"/>
<path id="Vector_16" d="M832.904 606.181H574.225L528.584 395.254H875.735C877.507 395.254 879.257 395.613 880.866 396.306C882.475 396.999 883.904 398.01 885.055 399.269C886.207 400.528 887.053 402.005 887.535 403.599C888.018 405.193 888.126 406.866 887.851 408.502L845.018 596.493C844.576 599.198 843.109 601.664 840.886 603.442C838.662 605.221 835.829 606.193 832.904 606.181V606.181ZM577.034 602.99H832.904C835.015 602.999 837.06 602.297 838.664 601.014C840.269 599.73 841.327 597.95 841.646 595.998L884.479 408.007C884.677 406.826 884.6 405.618 884.252 404.468C883.904 403.317 883.293 402.251 882.462 401.342C881.631 400.434 880.6 399.704 879.438 399.204C878.277 398.704 877.014 398.445 875.735 398.445H532.726L577.034 602.99Z" fill="#3F3D56"/>
<path id="Vector_17" d="M624.513 605.506L594.623 397.109L597.989 396.589L627.879 604.986L624.513 605.506Z" fill="#3F3D56"/>
<path id="Vector_18" d="M790.712 603.906L787.343 603.396L816.36 396.594L819.729 397.105L790.712 603.906Z" fill="#3F3D56"/>
<path id="Vector_19" d="M711.527 396.849H708.115V605.246H711.527V396.849Z" fill="#3F3D56"/>
<path id="Vector_20" d="M546.014 452.691L546.005 455.882L876.3 456.63L876.308 453.439L546.014 452.691Z" fill="#3F3D56"/>
<path id="Vector_21" d="M853 551.262L562.829 553.117L562.853 556.308L853.024 554.453L853 551.262Z" fill="#3F3D56"/>
<path id="Vector_22" d="M472.648 364.94C483.012 364.94 491.415 360.654 491.415 355.367C491.415 350.08 483.012 345.794 472.648 345.794C462.283 345.794 453.881 350.08 453.881 355.367C453.881 360.654 462.283 364.94 472.648 364.94Z" fill="#3F3D56"/>
</g>
</svg>
