<svg width="874" height="639" viewBox="0 0 874 639" fill="none" xmlns="http://www.w3.org/2000/svg">
<g id="undraw_shopping_app_flsj (1) 1">
<path id="Vector" d="M197.892 119.148C209.029 119.148 218.058 110.119 218.058 98.9819C218.058 87.8447 209.029 78.8162 197.892 78.8162C186.755 78.8162 177.726 87.8447 177.726 98.9819C177.726 110.119 186.755 119.148 197.892 119.148Z" fill="white"/>
<path id="Vector_2" d="M245.281 126.206C256.419 126.206 265.447 117.177 265.447 106.04C265.447 94.9026 256.419 85.8741 245.281 85.8741C234.144 85.8741 225.116 94.9026 225.116 106.04C225.116 117.177 234.144 126.206 245.281 126.206Z" fill="white"/>
<path id="Vector_3" d="M245.281 121.164C256.419 121.164 265.447 112.136 265.447 100.998C265.447 89.8613 256.419 80.8328 245.281 80.8328C234.144 80.8328 225.116 89.8613 225.116 100.998C225.116 112.136 234.144 121.164 245.281 121.164Z" fill="white"/>
<path id="Vector_4" d="M782.855 574.599L714.53 526.273C737.573 503.826 758.532 471.862 778.576 435.722L846.901 484.048C819.599 515.055 796.471 545.484 782.855 574.599Z" fill="#00BFA6"/>
<path id="Vector_5" d="M782.873 523.148C794.011 523.148 803.039 514.119 803.039 502.982C803.039 491.845 794.011 482.816 782.873 482.816C771.736 482.816 762.708 491.845 762.708 502.982C762.708 514.119 771.736 523.148 782.873 523.148Z" fill="white"/>
<path id="Vector_6" d="M457.285 389.368H442.161V399.451H457.285V389.368Z" fill="white"/>
<path id="Vector_7" d="M690.602 458.742H676.563C676.069 458.742 675.596 458.938 675.247 459.287C674.898 459.636 674.702 460.109 674.702 460.603V466.765C674.702 467.259 674.898 467.733 675.247 468.082C675.596 468.431 676.069 468.627 676.563 468.627H678.89V477.86H688.276V468.627H690.602C691.096 468.627 691.569 468.431 691.919 468.082C692.268 467.733 692.464 467.259 692.464 466.765V460.603C692.464 460.109 692.268 459.636 691.919 459.287C691.569 458.938 691.096 458.742 690.602 458.742V458.742Z" fill="#E6E6E6"/>
<path id="Vector_8" d="M704.664 515.139C696.066 502.557 691.671 487.578 692.107 472.345C692.115 471.994 692.001 471.65 691.785 471.373C691.568 471.097 691.262 470.903 690.919 470.826V468.163H676.092V470.789H675.888C675.688 470.789 675.49 470.829 675.305 470.906C675.121 470.982 674.953 471.095 674.812 471.236C674.671 471.378 674.559 471.545 674.483 471.73C674.407 471.915 674.368 472.113 674.368 472.312C674.368 472.349 674.37 472.386 674.372 472.423C675.54 488.706 671.596 503.309 662.539 516.231C662.018 516.973 661.751 517.865 661.78 518.772L663.401 568.923C663.44 570.042 663.91 571.102 664.712 571.883C665.514 572.664 666.586 573.104 667.706 573.113H701.243C702.375 573.104 703.459 572.653 704.263 571.857C705.068 571.06 705.529 569.981 705.55 568.849L706.175 520.156C706.193 518.369 705.666 516.619 704.664 515.139V515.139Z" fill="#00BFA6"/>
<path id="Vector_9" opacity="0.2" d="M687.676 460.75C687.676 461.815 687.253 462.836 686.5 463.589C685.746 464.342 684.725 464.766 683.66 464.766C682.595 464.766 681.574 464.342 680.82 463.589C680.067 462.836 679.644 461.815 679.644 460.75" fill="black"/>
<path id="Vector_10" d="M699.355 531.797H670.164C669.732 531.797 669.305 531.891 668.912 532.071C668.519 532.252 668.17 532.515 667.889 532.843C667.608 533.171 667.401 533.556 667.282 533.971C667.163 534.387 667.136 534.823 667.201 535.25L671.613 563.924H696.943L702.301 535.347C702.382 534.914 702.367 534.469 702.256 534.042C702.146 533.616 701.943 533.219 701.661 532.881C701.38 532.542 701.028 532.269 700.629 532.082C700.231 531.895 699.796 531.797 699.355 531.797V531.797Z" fill="white"/>
<path id="Vector_11" d="M650.546 574.52H566.858C572.709 542.887 571.363 504.688 566.858 463.608H650.546C646.161 504.688 644.851 542.887 650.546 574.52Z" fill="#00BFA6"/>
<path id="Vector_12" d="M609.206 536.205C620.343 536.205 629.372 527.177 629.372 516.039C629.372 504.902 620.343 495.874 609.206 495.874C598.069 495.874 589.041 504.902 589.041 516.039C589.041 527.177 598.069 536.205 609.206 536.205Z" fill="white"/>
<path id="Vector_13" d="M823.751 581.845H557.879L501.578 315.694H453.529V303.752H511.258L567.559 569.902H823.751V581.845Z" fill="#3F3D56"/>
<path id="Vector_14" d="M596.841 630.468C610.975 630.468 622.432 619.011 622.432 604.877C622.432 590.743 610.975 579.285 596.841 579.285C582.707 579.285 571.25 590.743 571.25 604.877C571.25 619.011 582.707 630.468 596.841 630.468Z" fill="#3F3D56"/>
<path id="Vector_15" d="M787.923 630.468C802.057 630.468 813.515 619.011 813.515 604.877C813.515 590.743 802.057 579.285 787.923 579.285C773.79 579.285 762.332 590.743 762.332 604.877C762.332 619.011 773.79 630.468 787.923 630.468Z" fill="#3F3D56"/>
<path id="Vector_16" d="M818.904 576.221H560.225L514.584 350.669H861.735C863.507 350.669 865.257 351.053 866.866 351.794C868.475 352.535 869.904 353.616 871.055 354.963C872.207 356.309 873.053 357.888 873.535 359.593C874.018 361.297 874.126 363.086 873.851 364.836L831.018 565.861C830.576 568.753 829.109 571.39 826.886 573.292C824.662 575.194 821.829 576.233 818.904 576.221V576.221ZM563.034 572.809H818.904C821.015 572.818 823.06 572.067 824.664 570.695C826.269 569.322 827.327 567.419 827.646 565.331L870.479 364.306C870.678 363.043 870.6 361.752 870.252 360.522C869.904 359.291 869.293 358.151 868.462 357.18C867.631 356.208 866.6 355.428 865.438 354.893C864.277 354.358 863.014 354.081 861.735 354.081H518.726L563.034 572.809Z" fill="#3F3D56"/>
<path id="Vector_17" d="M610.513 575.499L580.623 352.653L583.989 352.097L613.879 574.943L610.513 575.499Z" fill="#3F3D56"/>
<path id="Vector_18" d="M776.712 573.788L773.343 573.242L802.36 352.102L805.729 352.648L776.712 573.788Z" fill="#3F3D56"/>
<path id="Vector_19" d="M697.527 352.375H694.115V575.221H697.527V352.375Z" fill="#3F3D56"/>
<path id="Vector_20" d="M532.014 412.088L532.005 415.501L862.3 416.3L862.308 412.888L532.014 412.088Z" fill="#3F3D56"/>
<path id="Vector_21" d="M839 517.494L548.829 519.478L548.853 522.89L839.024 520.906L839 517.494Z" fill="#3F3D56"/>
<path id="Vector_22" d="M458.648 318.253C469.012 318.253 477.415 313.67 477.415 308.017C477.415 302.363 469.012 297.78 458.648 297.78C448.283 297.78 439.881 302.363 439.881 308.017C439.881 313.67 448.283 318.253 458.648 318.253Z" fill="#3F3D56"/>
</g>
</svg>
